<svg width="18" height="24" viewBox="0 0 18 24" fill="none" xmlns="http://www.w3.org/2000/svg">
<path d="M10.9395 0H3C2.20435 0 1.44129 0.316071 0.87868 0.87868C0.31607 1.44129 0 2.20435 0 3V21C0 21.7956 0.31607 22.5587 0.87868 23.1213C1.44129 23.6839 2.20435 24 3 24H15C15.7956 24 16.5587 23.6839 17.1213 23.1213C17.6839 22.5587 18 21.7956 18 21V7.0605C17.9999 6.66271 17.8418 6.28124 17.5605 6L12 0.4395C11.7188 0.158176 11.3373 8.49561e-05 10.9395 0V0ZM11.25 5.25V2.25L15.75 6.75H12.75C12.3522 6.75 11.9706 6.59196 11.6893 6.31066C11.408 6.02936 11.25 5.64782 11.25 5.25ZM13.5 12C13.5 13.1935 13.0259 14.3381 12.182 15.182C11.3381 16.0259 10.1935 16.5 9 16.5C7.80653 16.5 6.66193 16.0259 5.81802 15.182C4.97411 14.3381 4.5 13.1935 4.5 12C4.5 10.8065 4.97411 9.66193 5.81802 8.81802C6.66193 7.97411 7.80653 7.5 9 7.5C10.1935 7.5 11.3381 7.97411 12.182 8.81802C13.0259 9.66193 13.5 10.8065 13.5 12ZM16.5 20.6325V21C16.5 21.3978 16.342 21.7794 16.0607 22.0607C15.7794 22.342 15.3978 22.5 15 22.5H3C2.60218 22.5 2.22064 22.342 1.93934 22.0607C1.65804 21.7794 1.5 21.3978 1.5 21V20.6325C1.5 20.6325 3 18 9 18C15 18 16.5 20.6325 16.5 20.6325Z" fill="#00335A"/>
</svg>
