<svg width="24" height="22" viewBox="0 0 24 22" fill="none" xmlns="http://www.w3.org/2000/svg">
<path fill-rule="evenodd" clip-rule="evenodd" d="M12 3.9395L21 12.9395V19.25C21 19.8467 20.7629 20.419 20.341 20.841C19.919 21.2629 19.3467 21.5 18.75 21.5H5.25C4.65326 21.5 4.08097 21.2629 3.65901 20.841C3.23705 20.419 3 19.8467 3 19.25V12.9395L12 3.9395V3.9395ZM19.5 2.75V8L16.5 5V2.75C16.5 2.55109 16.579 2.36032 16.7197 2.21967C16.8603 2.07902 17.0511 2 17.25 2H18.75C18.9489 2 19.1397 2.07902 19.2803 2.21967C19.421 2.36032 19.5 2.55109 19.5 2.75Z" fill="#303030"/>
<path fill-rule="evenodd" clip-rule="evenodd" d="M10.9395 1.24997C11.2208 0.968764 11.6022 0.810791 12 0.810791C12.3977 0.810791 12.7792 0.968764 13.0605 1.24997L23.031 11.219C23.1718 11.3598 23.2509 11.5508 23.2509 11.75C23.2509 11.9491 23.1718 12.1401 23.031 12.281C22.8901 12.4218 22.6991 12.5009 22.5 12.5009C22.3008 12.5009 22.1098 12.4218 21.969 12.281L12 2.31047L2.03097 12.281C1.89014 12.4218 1.69913 12.5009 1.49997 12.5009C1.30081 12.5009 1.1098 12.4218 0.968971 12.281C0.828141 12.1401 0.749023 11.9491 0.749023 11.75C0.749023 11.5508 0.828141 11.3598 0.968971 11.219L10.9395 1.24997Z" fill="#303030"/>
</svg>
