<svg width="18" height="18" viewBox="0 0 18 18" fill="none" xmlns="http://www.w3.org/2000/svg">
<path d="M8.99984 2.33341C5.31794 2.33341 2.33317 5.31818 2.33317 9.00008C2.33317 12.682 5.31794 15.6667 8.99984 15.6667C12.6817 15.6667 15.6665 12.682 15.6665 9.00008C15.6665 5.31818 12.6817 2.33341 8.99984 2.33341ZM0.666504 9.00008C0.666504 4.39771 4.39746 0.666748 8.99984 0.666748C13.6022 0.666748 17.3332 4.39771 17.3332 9.00008C17.3332 13.6025 13.6022 17.3334 8.99984 17.3334C4.39746 17.3334 0.666504 13.6025 0.666504 9.00008Z" fill="#757575"/>
<path d="M8.99984 10.6667C8.5396 10.6667 8.1665 10.2937 8.1665 9.83342V9.00008C8.1665 8.53984 8.5396 8.16675 8.99984 8.16675C9.46008 8.16675 9.83317 8.53984 9.83317 9.00008V9.83342C9.83317 10.2937 9.46007 10.6667 8.99984 10.6667Z" fill="#757575"/>
<path d="M7.74984 12.7501C7.74984 12.0597 8.30948 11.5001 8.99984 11.5001C9.69019 11.5001 10.2498 12.0597 10.2498 12.7501C10.2498 13.4404 9.69019 14.0001 8.99984 14.0001C8.30948 14.0001 7.74984 13.4404 7.74984 12.7501Z" fill="#757575"/>
<path d="M9.32478 5.50956C8.52726 5.47158 7.8585 5.91708 7.7385 6.63708C7.66284 7.09106 7.23348 7.39774 6.7795 7.32208C6.32553 7.24642 6.01885 6.81706 6.09451 6.36309C6.39118 4.58309 8.01408 3.77859 9.40406 3.84478C10.1161 3.87868 10.8478 4.13424 11.4112 4.66073C11.9887 5.20031 12.3332 5.97322 12.3332 6.91675C12.3332 7.99284 11.9098 8.79084 11.1808 9.27679C10.5115 9.72299 9.69111 9.83342 8.99984 9.83342C8.5396 9.83342 8.1665 9.46032 8.1665 9.00008C8.1665 8.53984 8.5396 8.16675 8.99984 8.16675C9.55857 8.16675 9.98813 8.06885 10.2563 7.89004C10.4649 7.75099 10.6665 7.50733 10.6665 6.91675C10.6665 6.40195 10.4902 6.08111 10.2733 5.8785C10.0425 5.6628 9.70653 5.52774 9.32478 5.50956Z" fill="#757575"/>
</svg>
