<svg width="24" height="16" viewBox="0 0 24 16" fill="none" xmlns="http://www.w3.org/2000/svg">
<path d="M7.46992 2C7.35751 2.00016 7.24657 2.02559 7.14531 2.0744C7.04405 2.12321 6.95506 2.19416 6.88492 2.282L2.30992 8H8.99992C9.19883 8 9.3896 8.07902 9.53025 8.21967C9.6709 8.36032 9.74992 8.55109 9.74992 8.75C9.74992 9.34674 9.98697 9.91903 10.4089 10.341C10.8309 10.7629 11.4032 11 11.9999 11C12.5967 11 13.169 10.7629 13.5909 10.341C14.0129 9.91903 14.2499 9.34674 14.2499 8.75C14.2499 8.55109 14.3289 8.36032 14.4696 8.21967C14.6102 8.07902 14.801 8 14.9999 8H21.6899L17.1149 2.282C17.0448 2.19416 16.9558 2.12321 16.8545 2.0744C16.7533 2.02559 16.6423 2.00016 16.5299 2H7.46992ZM22.4009 9.5H15.6749C15.5028 10.3477 15.0429 11.1099 14.3731 11.6573C13.7034 12.2047 12.8649 12.5038 11.9999 12.5038C11.1349 12.5038 10.2965 12.2047 9.62672 11.6573C8.95696 11.1099 8.49705 10.3477 8.32492 9.5H1.59892L2.07892 13.343C2.10161 13.5246 2.18994 13.6917 2.32725 13.8127C2.46456 13.9337 2.64139 14.0003 2.82442 14H21.1754C21.3582 13.9999 21.5346 13.9332 21.6716 13.8122C21.8086 13.6912 21.8968 13.5244 21.9194 13.343L22.3994 9.5H22.4009ZM5.71342 1.3445C5.92431 1.08086 6.19184 0.86806 6.49616 0.72187C6.80048 0.575681 7.1338 0.499851 7.47142 0.5H16.5284C16.866 0.499851 17.1994 0.575681 17.5037 0.72187C17.808 0.86806 18.0755 1.08086 18.2864 1.3445L23.8364 8.282C23.8988 8.36027 23.9448 8.45023 23.9719 8.54658C23.9989 8.64293 24.0064 8.74371 23.9939 8.843L23.4089 13.529C23.3409 14.0733 23.0764 14.5741 22.665 14.937C22.2537 15.3 21.724 15.5002 21.1754 15.5H2.82442C2.27585 15.5002 1.7461 15.3 1.33479 14.937C0.923479 14.5741 0.65894 14.0733 0.590917 13.529L0.00591728 8.843C-0.00637711 8.74361 0.00135791 8.64277 0.028666 8.54642C0.0559741 8.45006 0.102302 8.36016 0.164917 8.282L5.71492 1.3445H5.71342Z" fill="#00335A"/>
</svg>
